<?xml version="1.0" encoding="UTF-8" standalone="no"?>
<!DOCTYPE svg PUBLIC "-//W3C//DTD SVG 1.1//EN" "http://www.w3.org/Graphics/SVG/1.1/DTD/svg11.dtd">
<svg width="240.00" height="192.00" viewBox="0.00 0.00 1000.00 800.00" xmlns="http://www.w3.org/2000/svg" xmlns:xlink="http://www.w3.org/1999/xlink">
<g stroke-linecap="round" id="Layer_2">
<path d="M602.65,234.60 L726.87,253.30" fill="none" stroke="rgb(0, 0, 0)" stroke-width="9.00" stroke-opacity="1.00" stroke-linejoin="round"/>
<path d="M752.07,262.82 L828.58,349.13" fill="none" stroke="rgb(0, 0, 0)" stroke-width="9.00" stroke-opacity="1.00" stroke-linejoin="round"/>
<path d="M608.17,232.64 L891.66,124.36" fill="none" stroke="rgb(0, 0, 0)" stroke-width="9.00" stroke-opacity="1.00" stroke-linejoin="round"/>
<path d="M891.86,125.76 L726.74,252.84" fill="none" stroke="rgb(0, 0, 0)" stroke-width="9.00" stroke-opacity="1.00" stroke-linejoin="round"/>
<path d="M745.54,257.08 L892.33,126.90" fill="none" stroke="rgb(0, 0, 0)" stroke-width="9.00" stroke-opacity="1.00" stroke-linejoin="round"/>
<path d="M893.49,126.18 L849.15,373.37" fill="none" stroke="rgb(0, 0, 0)" stroke-width="9.00" stroke-opacity="1.00" stroke-linejoin="round"/>
<path d="M849.15,373.37 L746.68,258.93" fill="none" stroke="rgb(0, 0, 0)" stroke-width="9.00" stroke-opacity="1.00" stroke-linejoin="round"/>
<path d="M726.19,253.14 L713.20,356.20" fill="none" stroke="rgb(0, 0, 0)" stroke-width="9.00" stroke-opacity="1.00" stroke-linejoin="round"/>
<path d="M712.84,356.66 L745.20,257.58" fill="none" stroke="rgb(0, 0, 0)" stroke-width="9.00" stroke-opacity="1.00" stroke-linejoin="round"/>
<path d="M716.18,353.96 L777.25,291.85" fill="none" stroke="rgb(0, 0, 0)" stroke-width="9.00" stroke-opacity="1.00" stroke-linejoin="round"/>
<path d="M694.00,377.00 Q668.00,409.00 642.00,426.00" fill="none" stroke="rgb(0, 0, 0)" stroke-width="8.00" stroke-opacity="1.00" stroke-linejoin="round"/>
<path d="M579.00,460.00 Q546.00,482.00 502.00,492.00" fill="none" stroke="rgb(0, 0, 0)" stroke-width="8.00" stroke-opacity="1.00" stroke-linejoin="round"/>
<path d="M439.00,494.00 Q388.00,492.00 358.00,468.00" fill="none" stroke="rgb(0, 0, 0)" stroke-width="8.00" stroke-opacity="1.00" stroke-linejoin="round"/>
<path d="M310.00,417.00 Q287.00,367.00 317.00,325.00" fill="none" stroke="rgb(0, 0, 0)" stroke-width="8.00" stroke-opacity="1.00" stroke-linejoin="round"/>
<path d="M360.00,280.00 Q410.00,254.00 451.00,280.00" fill="none" stroke="rgb(0, 0, 0)" stroke-width="8.00" stroke-opacity="1.00" stroke-linejoin="round"/>
<path d="M491.00,331.00 Q517.00,371.00 488.00,416.00" fill="none" stroke="rgb(0, 0, 0)" stroke-width="8.00" stroke-opacity="1.00" stroke-linejoin="round"/>
<path d="M321.00,533.00 Q299.00,547.00 229.00,564.00" fill="none" stroke="rgb(0, 0, 0)" stroke-width="8.00" stroke-opacity="1.00" stroke-linejoin="round"/>
<path d="M144.00,584.00 Q117.00,594.00 54.56,605.78" fill="none" stroke="rgb(0, 0, 0)" stroke-width="8.00" stroke-opacity="1.00" stroke-linejoin="round"/>
</g>
</svg>
